<?xml version="1.0" encoding="UTF-8" standalone="no"?>
<!DOCTYPE svg  PUBLIC '-//W3C//DTD SVG 1.1//EN'  'http://www.w3.org/Graphics/SVG/1.1/DTD/svg11.dtd'>
<svg xmlns="http://www.w3.org/2000/svg">
<defs>
<font id="TradeGothicLTStd-BdCn20" horiz-adv-x="444">
<font-face underline-position="-50" font-weight="700" descent="-200" panose-1="0 0 8 6 0 0 0 0 0 0" units-per-em="1000" unicode-range="U+0020-25CA" font-stretch="condensed" bbox="-167 -236 1000 964" x-height="538" underline-thickness="50" font-family="Trade Gothic LT Std Cn" ascent="800" cap-height="722"/>
<missing-glyph horiz-adv-x="1000"/>
<glyph glyph-name=".notdef" horiz-adv-x="1000"/>
<glyph glyph-name=".null" horiz-adv-x="0"/>
<glyph glyph-name="nonmarkingreturn" horiz-adv-x="333"/>
<glyph glyph-name="space" horiz-adv-x="222" unicode=" "/>
<glyph glyph-name="exclam" horiz-adv-x="278" unicode="!" d="M198 0h-118v118h118v-118zM98 212l-22 510h126l-22 -510h-82z"/>
<glyph glyph-name="quotedbl" horiz-adv-x="333" unicode='&quot;' d="M199 448v274h94v-274h-94zM40 448v274h94v-274h-94z"/>
<glyph glyph-name="numbersign" d="M272 430h-80l-16 -138h80zM408 292v-78h-72l-24 -214h-90l25 214h-81l-24 -214h-91l25 214h-66v78h76l15 138h-66v78h76l25 214h89l-25 -214h81l25 214h89l-25 -214h64v-78h-72l-16 -138h62z" unicode="#"/>
<glyph glyph-name="dollar" d="M252 293v-197q56 22 56 93q0 34 -13.5 56t-42.5 48zM192 450v174q-23 -7 -36.5 -27.5t-13.5 -46.5q0 -55 50 -100zM192 722v88h60v-88q87 -17 139 -91l-76 -65q-30 51 -63 58v-207q79 -50 120.5 -98.5t41.5 -124.5q0 -78 -43 -132.5t-119 -61.5v-116h-60v116 q-96 10 -162 113l83 63q24 -64 79 -80v235q-69 42 -110.5 91t-41.5 115q0 72 40.5 124t111.5 61z" unicode="$"/>
<glyph glyph-name="percent" horiz-adv-x="778" unicode="%" d="M557 732h75l-409 -742h-75zM400 164q0 68 48 116t116 48t116 -48t48 -116t-48 -116t-116 -48t-116 48t-48 116zM480 164q0 -34 25 -59t59 -25t59 25t25 59t-25 59t-59 25t-59 -25t-25 -59zM130 558q0 -34 25 -59t59 -25t59 25t25 59t-25 59t-59 25t-59 -25t-25 -59z M50 558q0 68 48 116t116 48t116 -48t48 -116t-48 -116t-116 -48t-116 48t-48 116z"/>
<glyph glyph-name="ampersand" horiz-adv-x="556" unicode="&amp;" d="M166 175q0 -32 20.5 -54.5t52.5 -22.5t57 21q-66 79 -99 145q-31 -47 -31 -89zM404 350l102 -27q-3 -16 -8.5 -33.5t-9.5 -30t-12 -33t-11.5 -29.5t-13.5 -33t-13 -30q31 -28 69 -34v-110q-82 2 -140 55q-58 -55 -142 -55q-78 0 -125.5 47t-47.5 122q0 101 95 204 q-57 127 -57 199q0 76 40.5 123t116.5 47q68 0 107.5 -41t39.5 -109q0 -13 -2 -26.5t-5 -24.5t-9.5 -24.5t-10.5 -22.5t-14 -22.5t-15 -20t-17 -21t-16.5 -19.5t-18 -19.5t-16.5 -18.5q39 -82 90 -147q34 88 44 134zM192 589q0 -55 34 -139q60 79 60 132q0 78 -45 78 q-49 0 -49 -71z"/>
<glyph glyph-name="quotesingle" horiz-adv-x="222" unicode="&apos;" d="M64 448v274h94v-274h-94z"/>
<glyph glyph-name="parenleft" horiz-adv-x="278" unicode="(" d="M150 732h96q-118 -183 -118 -409t118 -409h-96q-56 87 -87 193.5t-31 215.5t31 215.5t87 193.5z"/>
<glyph glyph-name="parenright" horiz-adv-x="278" unicode=")" d="M32 732h96q56 -87 87 -193.5t31 -215.5t-31 -215.5t-87 -193.5h-96q118 183 118 409t-118 409z"/>
<glyph glyph-name="asterisk" d="M372 645l30 -89q-14 -1 -151 -17q64 -69 111 -107l-79 -55q-10 28 -61 140q-51 -112 -61 -140l-79 55q47 38 111 107q-137 16 -151 17l30 89q60 -36 127 -67q-5 64 -24 144h94q-19 -80 -24 -144q67 31 127 67z" unicode="*"/>
<glyph glyph-name="plus" horiz-adv-x="600" unicode="+" d="M251 302v204h98v-204h204v-98h-204v-204h-98v204h-204v98h204z"/>
<glyph glyph-name="comma" horiz-adv-x="222" unicode="," d="M170 118v-118l-69 -124h-53l49 124h-45v118h118z"/>
<glyph glyph-name="hyphen" horiz-adv-x="333" unicode="-" d="M289 223h-245v92h245v-92z"/>
<glyph glyph-name="period" horiz-adv-x="222" unicode="." d="M170 0h-118v118h118v-118z"/>
<glyph glyph-name="slash" horiz-adv-x="278" unicode="/" d="M-21 -10l222 742h98l-222 -742h-98z"/>
<glyph glyph-name="zero" d="M46 188v346q0 103 42 150.5t134 47.5t134 -47.5t42 -150.5v-346q0 -103 -42 -150.5t-134 -47.5t-134 47.5t-42 150.5zM280 157v408q0 69 -58 69t-58 -69v-408q0 -69 58 -69t58 69z" unicode="0"/>
<glyph glyph-name="one" d="M177 0v572h-98v67q94 48 147 93h63v-732h-112z" unicode="1"/>
<glyph glyph-name="two" d="M389 0h-345v97q136 198 187 290t51 165q0 82 -56 82q-29 0 -44.5 -20.5t-15.5 -54.5v-49h-118v34q0 82 49.5 135t134.5 53q74 0 121 -47.5t47 -112.5q0 -88 -44 -179.5t-186 -290.5h219v-102z" unicode="2"/>
<glyph glyph-name="three" d="M46 209h112v-49q0 -72 56 -72q59 0 59 85v55q0 58 -24 80t-82 22v98q56 0 78.5 23.5t22.5 86.5q0 52 -11.5 74t-38.5 22q-28 0 -42 -16.5t-14 -57.5v-30h-112v34q0 75 45 121.5t124 46.5q76 0 118.5 -54t42.5 -131q0 -67 -16 -104t-62 -62q53 -28 71 -65.5t18 -113.5 q0 -108 -44 -160t-136 -52q-165 0 -165 176v43z" unicode="3"/>
<glyph glyph-name="four" d="M232 0v174h-216v92l210 456h120v-456h66v-92h-66v-174h-114zM111 266h123v282h-2z" unicode="4"/>
<glyph glyph-name="five" d="M50 209h112v-58q0 -29 15 -46t40 -17q61 0 61 88v164q0 33 -14.5 49.5t-37.5 16.5q-47 0 -67 -55h-96q9 252 9 371h301l-4 -102h-195l-7 -156l2 -2q22 26 42.5 34t52.5 8q132 0 132 -190v-100q0 -116 -39.5 -170t-128.5 -54q-81 0 -129.5 39.5t-48.5 124.5v55z" unicode="5"/>
<glyph glyph-name="six" d="M164 313v-156q0 -69 58 -69t58 69v120q0 69 -52 69q-23 0 -64 -33zM383 528h-108v37q0 69 -53 69q-58 0 -58 -69v-169q27 27 47 37.5t55 10.5q58 0 95 -36.5t37 -111.5v-86q0 -115 -41.5 -167.5t-134.5 -52.5q-92 0 -134 47.5t-42 150.5v346q0 103 42 150.5t134 47.5h4 q71 0 114 -45.5t43 -114.5v-44z" unicode="6"/>
<glyph glyph-name="seven" d="M263 620h-207v102h326v-70l-147 -652h-117z" unicode="7"/>
<glyph glyph-name="eight" d="M222 436q29 0 41.5 23.5t12.5 75.5t-12.5 75.5t-41.5 23.5t-41.5 -23.5t-12.5 -75.5t12.5 -75.5t41.5 -23.5zM222 88q64 0 64 120t-64 120t-64 -120t64 -120zM46 200q0 71 16 114t59 71q-65 47 -65 144q0 102 43.5 152.5t122.5 50.5t122.5 -50.5t43.5 -152.5 q0 -97 -65 -144q43 -28 59 -71t16 -114q0 -102 -44.5 -156t-131.5 -54t-131.5 54t-44.5 156z" unicode="8"/>
<glyph glyph-name="nine" d="M280 409v156q0 69 -58 69t-58 -69v-120q0 -69 52 -69q23 0 64 33zM61 194h108v-37q0 -69 53 -69q58 0 58 69v169q-27 -27 -47 -37.5t-55 -10.5q-58 0 -95 36.5t-37 111.5v86q0 115 41.5 167.5t134.5 52.5q92 0 134 -47.5t42 -150.5v-346q0 -103 -42 -150.5t-134 -47.5h-4 q-71 0 -114 45.5t-43 114.5v44z" unicode="9"/>
<glyph glyph-name="colon" horiz-adv-x="222" unicode=":" d="M170 278h-118v118h118v-118zM170 0h-118v118h118v-118z"/>
<glyph glyph-name="semicolon" horiz-adv-x="222" unicode=";" d="M170 278h-118v118h118v-118zM170 118v-118l-69 -124h-53l49 124h-45v118h118z"/>
<glyph glyph-name="less" horiz-adv-x="600" unicode="&lt;" d="M553 104v-104l-506 211v84l506 211v-104l-365 -149z"/>
<glyph glyph-name="equal" horiz-adv-x="600" unicode="=" d="M553 198v-98h-506v98h506zM553 406v-98h-506v98h506z"/>
<glyph glyph-name="greater" horiz-adv-x="600" unicode="&gt;" d="M47 0v104l365 149l-365 149v104l506 -211v-84z"/>
<glyph glyph-name="question" horiz-adv-x="389" unicode="?" d="M242 0h-118v118h118v-118zM233 212h-96v84q0 77 52 173q3 6 12.5 23t13 23.5t10 20t9 21.5t5 18.5t2.5 19.5q0 18 -12 31.5t-30 13.5q-51 0 -71 -76l-96 36q24 67 67.5 99.5t113.5 32.5q58 0 101 -38.5t43 -95.5q0 -34 -11 -65.5t-19.5 -44.5t-31.5 -45q-20 -27 -31 -46 t-21 -54t-10 -77v-54z"/>
<glyph glyph-name="at" horiz-adv-x="800" unicode="@" d="M523 496l16 52h81l-63 -257q-7 -28 -7 -39q0 -27 16 -27q44 0 80 53t36 130q0 116 -75.5 181t-191.5 65q-127 0 -206 -83.5t-79 -211.5t84 -209.5t213 -81.5q130 0 213 83h83q-51 -77 -130 -119t-172 -42q-162 0 -271.5 103.5t-109.5 267.5q0 159 109.5 265t266.5 106 q139 0 241.5 -85.5t102.5 -217.5q0 -58 -19 -108t-47.5 -81.5t-62.5 -54.5t-64.5 -32.5t-53.5 -9.5q-24 0 -40 13.5t-17 40.5l-2 1q-50 -55 -108 -55q-64 0 -109.5 49t-45.5 117q0 99 60.5 175.5t154.5 76.5q77 0 117 -65zM369 233q52 0 87.5 48t35.5 103q0 37 -22 62 t-55 25q-52 0 -88 -48t-36 -101q0 -38 21.5 -63.5t56.5 -25.5z"/>
<glyph glyph-name="A" d="M154 160l-22 -160h-120l133 722h154l133 -722h-120l-22 160h-136zM221 578l-49 -310h100l-49 310h-2z" unicode="A"/>
<glyph glyph-name="B" horiz-adv-x="500" unicode="B" d="M60 0v722h184q192 0 192 -191q0 -50 -21.5 -92t-64.5 -59q100 -44 100 -171q0 -96 -47 -152.5t-147 -56.5h-196zM184 620v-194h45q37 0 60 24t23 68q0 102 -81 102h-47zM184 324v-222h52q48 0 69 27.5t21 83.5q0 57 -24 84t-78 27h-40z"/>
<glyph glyph-name="C" horiz-adv-x="500" unicode="C" d="M434 481h-124v56q0 43 -17 65t-43 22q-36 0 -51 -19t-15 -61v-366q0 -42 15 -61t51 -19q33 0 46.5 18t13.5 55v87h124v-83q0 -81 -47.5 -133t-136.5 -52q-93 0 -141.5 52t-48.5 133v372q0 81 48.5 133t141.5 52q89 0 136.5 -56t47.5 -142v-53z"/>
<glyph glyph-name="D" horiz-adv-x="500" unicode="D" d="M60 0v722h184q196 0 196 -218v-286q0 -218 -196 -218h-184zM184 620v-518h43q50 0 69.5 22t19.5 79v316q0 57 -19.5 79t-69.5 22h-43z"/>
<glyph glyph-name="E" d="M406 0h-346v722h332v-108h-208v-186h160v-108h-160v-212h222v-108z" unicode="E"/>
<glyph glyph-name="F" d="M184 0h-124v722h346v-108h-222v-186h166v-108h-166v-320z" unicode="F"/>
<glyph glyph-name="G" horiz-adv-x="500" unicode="G" d="M231 268v98h203v-366h-60l-23 54q-29 -35 -56 -49.5t-69 -14.5q-74 0 -120 50t-46 135v372q0 81 47 133t135 52q89 0 137.5 -56t48.5 -142v-46h-118q0 78 -16.5 107t-54.5 29q-55 0 -55 -79v-371q0 -76 58 -76q37 0 52.5 23t15.5 77v70h-79z"/>
<glyph glyph-name="H" horiz-adv-x="500" unicode="H" d="M184 0h-124v722h124v-294h132v294h124v-722h-124v320h-132v-320z"/>
<glyph glyph-name="I" horiz-adv-x="278" unicode="I" d="M201 0h-124v722h124v-722z"/>
<glyph glyph-name="J" horiz-adv-x="278" unicode="J" d="M3 -10v108h26q35 0 50 14.5t15 45.5v564h124v-578q0 -75 -38.5 -114.5t-135.5 -39.5h-41z"/>
<glyph glyph-name="K" d="M178 0h-124v722h124v-267h2l130 267h124l-134 -269l151 -453h-126l-101 336h-2l-44 -80v-256z" unicode="K"/>
<glyph glyph-name="L" horiz-adv-x="389" unicode="L" d="M373 0h-319v722h124v-614h195v-108z"/>
<glyph glyph-name="M" horiz-adv-x="611" unicode="M" d="M394 722h163v-722h-108v564h-2l-112 -564h-60l-112 564h-2v-564h-108v722h163l88 -422h2z"/>
<glyph glyph-name="N" horiz-adv-x="500" unicode="N" d="M172 0h-112v722h115l151 -413h2v413h112v-722h-108l-158 451h-2v-451z"/>
<glyph glyph-name="O" horiz-adv-x="500" unicode="O" d="M184 544v-366q0 -42 15 -61t51 -19t51 19t15 61v366q0 42 -15 61t-51 19t-51 -19t-15 -61zM60 175v372q0 81 48.5 133t141.5 52t141.5 -52t48.5 -133v-372q0 -81 -48.5 -133t-141.5 -52t-141.5 52t-48.5 133z"/>
<glyph glyph-name="P" horiz-adv-x="500" unicode="P" d="M184 0h-124v722h178q117 0 170.5 -49.5t53.5 -163.5t-53.5 -163.5t-170.5 -49.5h-54v-296zM184 620v-222h48q61 0 83.5 23.5t22.5 87.5t-22.5 87.5t-83.5 23.5h-48z"/>
<glyph glyph-name="Q" horiz-adv-x="500" unicode="Q" d="M259 148v110q34 -18 57 -44v330q0 42 -15 61t-51 19t-51 -19t-15 -61v-366q0 -42 15 -61t51 -19q28 0 42 11q-13 24 -33 39zM477 54v-108q-39 0 -67 13t-59 54q-41 -23 -101 -23q-93 0 -141.5 52t-48.5 133v372q0 81 48.5 133t141.5 52t141.5 -52t48.5 -133v-372 q0 -53 -21 -93q30 -26 58 -28z"/>
<glyph glyph-name="R" horiz-adv-x="500" unicode="R" d="M184 296v-296h-124v722h174q107 0 158.5 -50t51.5 -163q0 -143 -87 -182l105 -327h-126l-88 299q-24 -3 -64 -3zM184 620v-222h44q51 0 71.5 24t20.5 87t-20.5 87t-71.5 24h-44z"/>
<glyph glyph-name="S" d="M404 557l-118 -13q-3 43 -22 61.5t-44 18.5q-62 0 -62 -71q0 -33 26 -66.5t63 -64t74 -64.5t63 -81.5t26 -101.5q0 -88 -53.5 -136.5t-142.5 -48.5q-83 0 -132.5 57.5t-53.5 142.5l118 17q4 -53 23.5 -81t50.5 -28q33 0 52.5 17t19.5 49q0 39 -26 74.5t-63 65.5t-74 62.5 t-63 80.5t-26 105q0 86 50 133t142 47q74 0 118.5 -48t53.5 -127z" unicode="S"/>
<glyph glyph-name="T" horiz-adv-x="389" unicode="T" d="M132 0v614h-120v108h364v-108h-120v-614h-124z"/>
<glyph glyph-name="U" horiz-adv-x="500" unicode="U" d="M60 182v540h124v-545q0 -79 66 -79t66 79v545h124v-540q0 -92 -50.5 -142t-139.5 -50t-139.5 50t-50.5 142z"/>
<glyph glyph-name="V" d="M223 221l90 501h122l-151 -722h-124l-151 722h122l90 -501h2z" unicode="V"/>
<glyph glyph-name="W" horiz-adv-x="667" unicode="W" d="M194 262l81 460h102l84 -460h2l69 460h116l-127 -722h-104l-90 477h-2l-84 -477h-104l-137 722h116l76 -460h2z"/>
<glyph glyph-name="X" d="M14 0l142 378l-132 344h122l76 -229h2l69 229h122l-125 -344l140 -378h-122l-84 263h-2l-86 -263h-122z" unicode="X"/>
<glyph glyph-name="Y" d="M284 300v-300h-124v300l-150 422h126l87 -275h2l83 275h126z" unicode="Y"/>
<glyph glyph-name="Z" d="M275 614h-203v108h328v-118l-228 -496h228v-108h-356v118z" unicode="Z"/>
<glyph glyph-name="bracketleft" horiz-adv-x="278" unicode="[" d="M250 722v-48h-118v-702h118v-48h-214v798h214z"/>
<glyph glyph-name="backslash" horiz-adv-x="278" unicode="\" d="M77 732l222 -742h-98l-222 742h98z"/>
<glyph glyph-name="bracketright" horiz-adv-x="278" unicode="]" d="M28 674v48h214v-798h-214v48h118v702h-118z"/>
<glyph glyph-name="asciicircum" horiz-adv-x="600" unicode="^" d="M163 302h-107l190 420h108l190 -420h-109l-136 302z"/>
<glyph glyph-name="underscore" horiz-adv-x="500" unicode="_" d="M500 -125h-500v50h500v-50z"/>
<glyph glyph-name="grave" horiz-adv-x="222" unicode="`" d="M99 602l-131 144h135l79 -144h-83z"/>
<glyph glyph-name="a" d="M273 132v141q-73 -42 -100 -73.5t-27 -68.5q0 -49 52 -49q40 0 75 50zM154 380h-112q4 81 52 124.5t128 43.5q79 0 121 -36.5t42 -109.5v-345q0 -15 7 -57h-107q-1 8 -3.5 22t-2.5 20q-64 -52 -131 -52q-55 0 -84.5 33.5t-29.5 87.5q0 86 57 141t182 103v32q0 69 -55 69 q-36 0 -49 -19t-15 -57z" unicode="a"/>
<glyph glyph-name="b" d="M166 428v-318q38 -28 64 -28q54 0 54 87v200q0 87 -54 87q-26 0 -64 -28zM160 0h-106v722h112v-230q28 23 40 31.5t32.5 16.5t43.5 8q53 0 83.5 -39t30.5 -111v-258q0 -72 -30.5 -111t-83.5 -39q-41 0 -66 14.5t-54 51.5h-2v-56z" unicode="b"/>
<glyph glyph-name="c" d="M396 354h-112v14q0 88 -62 88t-62 -88v-198q0 -88 62 -88t62 88v34h112v-14q0 -200 -174 -200t-174 200v158q0 200 174 200q171 0 174 -194z" unicode="c"/>
<glyph glyph-name="d" d="M278 110v318q-38 28 -64 28q-54 0 -54 -87v-200q0 -87 54 -87q26 0 64 28zM390 0h-106v56h-2q-29 -37 -54 -51.5t-66 -14.5q-53 0 -83.5 39t-30.5 111v258q0 72 30.5 111t83.5 39q23 0 43.5 -8t32.5 -16.5t40 -31.5v230h112v-722z" unicode="d"/>
<glyph glyph-name="e" d="M396 348v-100h-236v-78q0 -88 62 -88t62 88v12h112q-3 -192 -174 -192q-174 0 -174 200v158q0 200 174 200t174 -200zM160 340h124v28q0 88 -62 88t-62 -88v-28z" unicode="e"/>
<glyph glyph-name="f" horiz-adv-x="278" unicode="f" d="M76 0v446h-66v92h66v67q0 127 125 127h56v-92h-32q-20 0 -28.5 -8t-8.5 -28v-66h64v-92h-64v-446h-112z"/>
<glyph glyph-name="g" d="M198 230q33 0 44.5 22.5t11.5 90.5t-11.5 90.5t-44.5 22.5q-29 0 -42.5 -24t-13.5 -89t13.5 -89t42.5 -24zM231 -90q55 0 75 9t20 31t-20 31t-75 9t-75 -9t-20 -31t20 -31t75 -9zM426 548v-93q-6 1 -18 1q-33 0 -54 -17q12 -42 12 -85q0 -119 -40.5 -167.5t-129.5 -48.5 h-36q-22 -6 -22 -25t29.5 -25t72 -7t85 -7t72 -34.5t29.5 -81.5q0 -128 -230 -128q-85 0 -131.5 22t-46.5 64q0 30 21.5 53.5t51.5 30.5v2q-51 20 -51 68t68 87q-44 30 -58 66t-14 127q0 110 39.5 154t134.5 44q74 0 124 -58q24 35 41 46.5t51 11.5z" unicode="g"/>
<glyph glyph-name="h" d="M166 0h-112v722h112v-234q28 24 39 33t35.5 18t55.5 9q44 0 69 -30t25 -83v-435h-112v417q0 39 -40 39q-25 0 -72 -34v-422z" unicode="h"/>
<glyph glyph-name="i" horiz-adv-x="222" unicode="i" d="M167 620h-112v102h112v-102zM167 0h-112v538h112v-538z"/>
<glyph glyph-name="j" horiz-adv-x="222" unicode="j" d="M173 620h-112v102h112v-102zM0 -170v102h19q42 0 42 42v563h112v-568q0 -139 -130 -139h-43z"/>
<glyph glyph-name="k" d="M411 538l-117 -170l130 -368h-113l-90 267h-2l-53 -79v-188h-112v722h112v-374h2l123 190h120z" unicode="k"/>
<glyph glyph-name="l" horiz-adv-x="222" unicode="l" d="M167 0h-112v722h112v-722z"/>
<glyph glyph-name="m" horiz-adv-x="667" unicode="m" d="M389 0h-112v417q0 39 -39 39q-25 0 -72 -34v-422h-112v538h106v-54q53 45 73 54q23 10 51 10q40 0 59 -14t39 -50q39 38 66 51t59 13q52 0 78.5 -30t26.5 -83v-435h-112v417q0 39 -40 39q-26 0 -71 -34v-422z"/>
<glyph glyph-name="n" d="M166 0h-112v538h106v-54q32 27 43.5 36t36.5 18.5t56 9.5q44 0 69 -30t25 -83v-435h-112v417q0 39 -40 39q-25 0 -72 -34v-422z" unicode="n"/>
<glyph glyph-name="o" d="M48 190v158q0 200 174 200t174 -200v-158q0 -200 -174 -200t-174 200zM284 170v198q0 88 -62 88t-62 -88v-198q0 -88 62 -88t62 88z" unicode="o"/>
<glyph glyph-name="p" d="M166 428v-318q38 -28 64 -28q54 0 54 87v200q0 87 -54 87q-26 0 -64 -28zM54 538h106v-56h2q29 37 54 51.5t66 14.5q53 0 83.5 -39t30.5 -111v-258q0 -72 -30.5 -111t-83.5 -39q-23 0 -43.5 8t-32.5 16.5t-40 31.5v-216h-112v708z" unicode="p"/>
<glyph glyph-name="q" d="M278 110v318q-38 28 -64 28q-54 0 -54 -87v-200q0 -87 54 -87q26 0 64 28zM284 538h106v-708h-112v216q-28 -23 -40 -31.5t-32.5 -16.5t-43.5 -8q-53 0 -83.5 39t-30.5 111v258q0 72 30.5 111t83.5 39q41 0 66 -14.5t54 -51.5h2v56z" unicode="q"/>
<glyph glyph-name="r" horiz-adv-x="333" unicode="r" d="M166 0h-112v538h107v-63h2q43 73 127 73h23v-117q-44 11 -72 11q-31 0 -53 -19t-22 -53v-370z"/>
<glyph glyph-name="s" horiz-adv-x="389" unicode="s" d="M353 405l-95 -16q-12 67 -64 67q-22 0 -35.5 -11t-13.5 -32q0 -23 21.5 -45.5t52.5 -43.5t62 -45.5t52.5 -62t21.5 -81.5q0 -70 -43 -107.5t-114 -37.5q-144 0 -171 150l98 27q13 -85 74 -85q22 0 36 12.5t14 34.5q0 25 -21.5 49.5t-52.5 46t-62 45.5t-52.5 58.5 t-21.5 75.5q0 63 43 103.5t107 40.5t107.5 -39t56.5 -104z"/>
<glyph glyph-name="t" horiz-adv-x="278" unicode="t" d="M72 446h-62v92h62v145h112v-145h75v-92h-75v-310q0 -44 38 -44h37v-96q-22 -6 -56 -6q-131 0 -131 121v335z"/>
<glyph glyph-name="u" d="M278 538h112v-538h-106v54q-32 -27 -43.5 -36t-36.5 -18.5t-56 -9.5q-44 0 -69 30t-25 83v435h112v-417q0 -39 40 -39q25 0 72 34v422z" unicode="u"/>
<glyph glyph-name="v" horiz-adv-x="389" unicode="v" d="M195 178l70 360h114l-130 -538h-109l-130 538h114l69 -360h2z"/>
<glyph glyph-name="w" horiz-adv-x="556" unicode="w" d="M165 202l71 335h83l60 -335h2l61 336h108l-124 -538h-90l-61 340h-2l-73 -340h-90l-104 538h108l49 -336h2z"/>
<glyph glyph-name="x" horiz-adv-x="389" unicode="x" d="M12 0l120 285l-111 253h116l57 -150l60 150h116l-116 -251l122 -287h-116l-65 182h-2l-65 -182h-116z"/>
<glyph glyph-name="y" horiz-adv-x="389" unicode="y" d="M198 194l68 344h113l-141 -578q-18 -72 -53 -100.5t-100 -28.5h-47v92h27q41 0 57.5 21t16.5 66q0 26 -12 71l-117 457h114l72 -344h2z"/>
<glyph glyph-name="z" horiz-adv-x="389" unicode="z" d="M235 446h-191v92h315v-92l-209 -354h209v-92h-329v92z"/>
<glyph glyph-name="braceleft" horiz-adv-x="278" unicode="{" d="M0 296v58q24 0 40 20t16 60v202q0 50 23 73t81 23h110v-48h-82q-36 0 -36 -50v-194q0 -54 -25.5 -82.5t-50.5 -31.5v-3q26 -4 51 -32t25 -85v-194q0 -50 36 -50h82v-48h-110q-58 0 -81 23t-23 73v206q0 40 -16 60t-40 20z"/>
<glyph glyph-name="bar" horiz-adv-x="222" unicode="|" d="M62 -10v742h98v-742h-98z"/>
<glyph glyph-name="braceright" horiz-adv-x="278" unicode="}" d="M278 350v-58q-24 0 -40 -20t-16 -60v-202q0 -50 -23 -73t-81 -23h-110v48h82q36 0 36 50v194q0 54 25.5 82.5t50.5 31.5v3q-26 4 -51 32t-25 85v194q0 50 -36 50h-82v48h110q58 0 81 -23t23 -73v-206q0 -40 16 -60t40 -20z"/>
<glyph glyph-name="asciitilde" horiz-adv-x="600" unicode="~" d="M495 335l44 -86q-6 -5 -21.5 -20.5t-24.5 -22.5t-23.5 -17t-30 -14t-33.5 -4q-42 0 -102 33q-54 31 -115 31q-51 0 -84 -64l-44 86q23 26 34.5 37.5t39.5 26t59 14.5q39 0 111 -32q5 -2 17.5 -7.5t18 -8t16 -6.5t17 -5.5t16 -3t17.5 -1.5q19 0 36.5 11t27 21.5t24.5 31.5 z"/>
<glyph glyph-name="uni00A0" horiz-adv-x="222" unicode=" "/>
<glyph glyph-name="exclamdown" horiz-adv-x="278" unicode="¡" d="M80 538h118v-118h-118v118zM180 326l22 -510h-126l22 510h82z"/>
<glyph glyph-name="cent" d="M401 364h-104v14q0 38 -15 59l-91 -337q12 -8 32 -8q71 0 71 88v34h112v-14q0 -200 -183 -200q-26 0 -43 4l-33 -120h-75l40 145q-74 46 -74 171v158q0 200 185 200q12 0 32 -2l35 128h74l-41 -150q76 -45 78 -170zM158 148l81 317q-5 1 -16 1q-33 0 -53 -21.5t-20 -66.5 v-198q0 -5 6 -32h2z" unicode="¢"/>
<glyph glyph-name="sterling" d="M35 -10v107q46 15 61.5 62.5t15.5 159.5h-77v84h63q-28 122 -28 164q0 79 41 122t124 43q82 0 121.5 -49.5t39.5 -152.5h-102q-3 65 -16.5 87.5t-45.5 22.5q-50 0 -50 -64q0 -26 4.5 -53t12.5 -62.5t12 -57.5h99v-84h-90q-2 -80 -8 -123t-27 -80q34 -24 70 -24 q51 0 51 107h100v-59q0 -71 -35 -110.5t-98 -39.5q-68 0 -128 48q-63 -43 -110 -48z" unicode="£"/>
<glyph glyph-name="currency" d="M110 361q0 -49 32.5 -83t79.5 -34t79.5 34t32.5 83t-32.5 83t-79.5 34t-79.5 -34t-32.5 -83zM436 199l-50 -53l-48 48q-52 -36 -116 -36q-65 0 -117 36l-47 -48l-50 53l47 46q-37 51 -37 116t37 116l-47 46l50 53l47 -48q52 36 117 36q64 0 116 -36l48 48l50 -53l-47 -46 q37 -51 37 -116t-37 -116z" unicode="¤"/>
<glyph glyph-name="yen" d="M418 468v-84h-121l-27 -80h148v-84h-148v-220h-96v220h-148v84h148l-27 80h-121v84h87l-91 254h100l101 -299h2l97 299h100l-91 -254h87z" unicode="¥"/>
<glyph glyph-name="brokenbar" horiz-adv-x="222" unicode="¦" d="M160 732v-306h-98v306h98zM160 296v-306h-98v306h98z"/>
<glyph glyph-name="section" horiz-adv-x="500" unicode="§" d="M144 399q0 -24 69.5 -98.5t96.5 -74.5q19 0 32.5 13t13.5 31q0 23 -68.5 97t-99.5 74q-20 0 -32 -12.5t-12 -29.5zM402 652l-69 -50q-2 2 -7.5 8.5t-8 9l-8.5 8.5t-9.5 8.5t-9 6.5t-10.5 6t-11 3.5t-12 1.5q-52 0 -52 -46q0 -23 25 -53.5t60.5 -61t71.5 -63.5t61 -73 t25 -77q0 -50 -29 -83.5t-79 -34.5q50 -48 50 -108q0 -59 -37 -96.5t-95 -37.5q-51 0 -89 20t-81 61l73 57q32 -60 79 -60q58 0 58 50q0 24 -25.5 56t-61.5 65.5t-72 68.5t-61.5 76t-25.5 77q0 49 30.5 79t80.5 35q-50 38 -50 105q0 55 37 88.5t107 33.5q44 0 82 -22.5 t63 -57.5z"/>
<glyph glyph-name="dieresis" horiz-adv-x="222" unicode="¨" d="M-22 722h108v-108h-108v108zM244 614h-108v108h108v-108z"/>
<glyph glyph-name="copyright" horiz-adv-x="800" unicode="©" d="M514 299h81q-12 -73 -62.5 -115t-118.5 -42q-94 0 -153 63t-59 158q0 97 57 159t153 62q70 0 119.5 -40t60.5 -114h-78q-7 37 -35 56.5t-67 19.5q-55 0 -85.5 -38.5t-30.5 -102.5q0 -61 33 -103t85 -42q42 0 69 21t31 58zM682 361q0 127 -81.5 210t-200.5 83 q-120 0 -201 -83t-81 -210t81 -210t201 -83q119 0 200.5 83t81.5 210zM400 -10q-156 0 -268 103.5t-112 267.5t112 267.5t268 103.5t268 -103.5t112 -267.5t-112 -267.5t-268 -103.5z"/>
<glyph glyph-name="ordfeminine" horiz-adv-x="266" unicode="ª" d="M164 486v73q-44 -22 -58 -38.5t-14 -38.5q0 -26 29 -26q30 0 43 30zM92 631h-78q3 48 36 75q32 26 86 26q106 0 106 -88v-208q0 -6 5 -34h-70q0 4 -2 11t-2 10q-36 -27 -85 -27q-36 0 -55 20t-19 53q0 51 36 84.5t114 62.5v19q0 20 -8 28.5t-26 8.5q-36 0 -38 -41z"/>
<glyph glyph-name="guillemotleft" horiz-adv-x="500" unicode="«" d="M327 269l114 -154h-96l-115 155l115 153h99zM160 269l114 -154h-96l-115 155l115 153h99z"/>
<glyph glyph-name="logicalnot" horiz-adv-x="600" unicode="¬" d="M455 99v209h-408v98h506v-307h-98z"/>
<glyph glyph-name="uni00AD" horiz-adv-x="333" unicode="­" d="M289 223h-245v92h245v-92z"/>
<glyph glyph-name="registered" horiz-adv-x="800" unicode="®" d="M682 361q0 127 -81.5 210t-200.5 83q-120 0 -201 -83t-81 -210t81 -210t201 -83q119 0 200.5 83t81.5 210zM400 -10q-156 0 -268 103.5t-112 267.5t112 267.5t268 103.5t268 -103.5t112 -267.5t-112 -267.5t-268 -103.5zM334 505v-110h71q44 0 62.5 14t18.5 44 q0 29 -19.5 40.5t-65.5 11.5h-67zM334 331v-177h-82v415h157q81 0 121 -28.5t40 -94.5q0 -53 -27.5 -80t-72.5 -31l100 -181h-91l-93 177h-52z"/>
<glyph glyph-name="macron" horiz-adv-x="222" unicode="¯" d="M-36 637v64h294v-64h-294z"/>
<glyph glyph-name="degree" horiz-adv-x="400" unicode="°" d="M200 446q-61 0 -102.5 41.5t-41.5 101.5t41.5 101.5t102.5 41.5t102.5 -41.5t41.5 -101.5t-41.5 -101.5t-102.5 -41.5zM200 502q36 0 59 25t23 62t-23 62t-59 25t-59 -25t-23 -62t23 -62t59 -25z"/>
<glyph glyph-name="plusminus" horiz-adv-x="600" unicode="±" d="M47 0v98h506v-98h-506zM251 369v137h98v-137h204v-98h-204v-137h-98v137h-204v98h204z"/>
<glyph glyph-name="twosuperior" horiz-adv-x="266" unicode="²" d="M249 292h-235v81q76 87 111 146t35 105q0 28 -28 28q-14 0 -23 -10t-9 -24v-19h-86v20q0 48 36.5 80.5t92.5 32.5q48 0 78.5 -28t30.5 -68q0 -61 -25.5 -118.5t-103.5 -145.5h126v-80z"/>
<glyph glyph-name="threesuperior" horiz-adv-x="266" unicode="³" d="M20 418h86v-21q0 -31 27 -31t27 39v25q0 33 -12.5 43.5t-44.5 10.5v74q30 0 42.5 11.5t12.5 46.5q0 40 -26 40q-25 0 -25 -28v-17h-84v20q0 45 30.5 73t82.5 28q55 0 84.5 -32t29.5 -79q0 -39 -10 -61.5t-37 -37.5q32 -17 42.5 -39.5t10.5 -68.5q0 -65 -30 -96.5 t-95 -31.5q-111 0 -111 107v25z"/>
<glyph glyph-name="acute" horiz-adv-x="222" unicode="´" d="M254 746l-131 -144h-83l79 144h135z"/>
<glyph glyph-name="mu" d="M278 538h112v-538h-106v54q-29 -25 -39.5 -33t-32 -18.5t-46.5 -12.5v-160h-112v708h112v-417q0 -39 40 -39q25 0 72 34v422z" unicode="µ"/>
<glyph glyph-name="paragraph" horiz-adv-x="500" unicode="¶" d="M195 -80v432q-86 0 -137.5 51t-51.5 131q0 188 208 188h288v-64h-56v-738h-82v738h-87v-738h-82z"/>
<glyph glyph-name="periodcentered" horiz-adv-x="222" unicode="·" d="M44 253q0 28 19.5 47.5t47.5 19.5t47.5 -19.5t19.5 -47.5t-19.5 -47.5t-47.5 -19.5q-29 0 -48 19t-19 48z"/>
<glyph glyph-name="cedilla" horiz-adv-x="222" unicode="¸" d="M-9 -213l17 50q34 -17 65 -17q26 0 42.5 12t16.5 29q0 36 -47 36q-19 0 -36 -7l-22 18l68 92h48l-41 -60q14 2 21 2q37 -2 64 -21.5t27 -54.5q0 -46 -36.5 -74t-87.5 -28q-50 0 -99 23z"/>
<glyph glyph-name="onesuperior" horiz-adv-x="266" unicode="¹" d="M94 292v335h-52v48q55 21 99 57h49v-440h-96z"/>
<glyph glyph-name="ordmasculine" horiz-adv-x="266" unicode="º" d="M20 517v95q0 120 113 120t113 -120v-95q0 -121 -113 -121t-113 121zM164 509v110q0 49 -31 49t-31 -49v-110q0 -49 31 -49t31 49z"/>
<glyph glyph-name="guillemotright" horiz-adv-x="500" unicode="»" d="M59 115l114 154l-117 154h99l115 -153l-115 -155h-96zM226 115l114 154l-117 154h99l115 -153l-115 -155h-96z"/>
<glyph glyph-name="onequarter" horiz-adv-x="666" unicode="¼" d="M102 292v335h-52v48q53 21 99 56h49v-439h-96zM165 -10h-91l410 742h91zM512 0v100h-142v80l129 253h95v-257h38v-76h-38v-100h-82zM448 176h64v133h-2z"/>
<glyph glyph-name="onehalf" horiz-adv-x="666" unicode="½" d="M633 0h-235v81q76 87 111 146t35 105q0 28 -28 28q-14 0 -23 -10t-9 -24v-19h-86v20q0 48 36.5 80.5t92.5 32.5q48 0 78.5 -28t30.5 -68q0 -61 -25.5 -118.5t-103.5 -145.5h126v-80zM100 292v335h-52v48q55 21 99 57h49v-440h-96zM157 -10h-91l410 742h91z"/>
<glyph glyph-name="threequarters" horiz-adv-x="666" unicode="¾" d="M30 418h86v-21q0 -31 27 -31t27 39v25q0 33 -12.5 43.5t-44.5 10.5v74q30 0 42.5 11.5t12.5 46.5q0 40 -26 40q-25 0 -25 -28v-17h-84v20q0 45 30.5 73t82.5 28q55 0 84.5 -32t29.5 -79q0 -39 -10 -61.5t-37 -37.5q32 -17 42.5 -39.5t10.5 -68.5q0 -65 -30 -96.5 t-95 -31.5q-111 0 -111 107v25zM184 -10h-91l410 742h91zM512 0v100h-142v80l129 253h95v-257h38v-76h-38v-100h-82zM448 176h64v133h-2z"/>
<glyph glyph-name="questiondown" horiz-adv-x="389" unicode="¿" d="M147 538h118v-118h-118v118zM156 326h96v-84q0 -77 -52 -173q-3 -6 -12.5 -23t-13 -23.5t-10 -20t-9 -21.5t-5 -18.5t-2.5 -19.5q0 -18 12 -31.5t30 -13.5q51 0 71 76l96 -36q-24 -67 -67.5 -99.5t-113.5 -32.5q-58 0 -101 38.5t-43 95.5q0 34 11 65.5t19.5 44.5t31.5 45 q20 27 31 46t21 54t10 77v54z"/>
<glyph glyph-name="Agrave" d="M210 760l-131 144h135l79 -144h-83zM154 160l-22 -160h-120l133 722h154l133 -722h-120l-22 160h-136zM221 578l-49 -310h100l-49 310h-2z" unicode="À"/>
<glyph glyph-name="Aacute" d="M365 904l-131 -144h-83l79 144h135zM154 160l-22 -160h-120l133 722h154l133 -722h-120l-22 160h-136zM221 578l-49 -310h100l-49 310h-2z" unicode="Á"/>
<glyph glyph-name="Acircumflex" d="M71 760l96 144h110l96 -144h-92l-59 89l-59 -89h-92zM154 160l-22 -160h-120l133 722h154l133 -722h-120l-22 160h-136zM221 578l-49 -310h100l-49 310h-2z" unicode="Â"/>
<glyph glyph-name="Atilde" d="M329 891h56q-23 -118 -103 -118q-25 0 -65 20q-38 19 -60 19t-31.5 -10.5t-10.5 -33.5h-56q23 118 103 118q23 0 65 -19q44 -20 60 -20q22 0 31.5 10.5t10.5 33.5zM154 160l-22 -160h-120l133 722h154l133 -722h-120l-22 160h-136zM221 578l-49 -310h100l-49 310h-2z" unicode="Ã"/>
<glyph glyph-name="Adieresis" d="M89 880h108v-108h-108v108zM355 772h-108v108h108v-108zM154 160l-22 -160h-120l133 722h154l133 -722h-120l-22 160h-136zM221 578l-49 -310h100l-49 310h-2z" unicode="Ä"/>
<glyph glyph-name="Aring" d="M170 862q0 -22 15 -37t37 -15t37 15t15 37t-15 37t-37 15t-37 -15t-15 -37zM120 862q0 42 30 72t72 30t72 -30t30 -72t-30 -72t-72 -30t-72 30t-30 72zM154 160l-22 -160h-120l133 722h154l133 -722h-120l-22 160h-136zM221 578l-49 -310h100l-49 310h-2z" unicode="Å"/>
<glyph glyph-name="AE" horiz-adv-x="722" unicode="Æ" d="M12 0l233 722h425v-108h-212v-186h164v-108h-164v-212h226v-108h-350v170h-144l-52 -170h-126zM224 278h110v354h-2z"/>
<glyph glyph-name="Ccedilla" horiz-adv-x="500" unicode="Ç" d="M434 481h-124v56q0 43 -17 65t-43 22q-36 0 -51 -19t-15 -61v-366q0 -42 15 -61t51 -19q33 0 46.5 18t13.5 55v87h124v-83q0 -75 -40.5 -125.5t-117.5 -58.5l-35 -51q14 2 21 2q37 -2 64 -21.5t27 -54.5q0 -46 -36.5 -74t-87.5 -28q-50 0 -99 23l17 50q34 -17 65 -17 q26 0 42.5 12t16.5 29q0 36 -47 36q-18 0 -36 -7l-22 18l61 83q-82 6 -124.5 57t-42.5 127v372q0 81 48.5 133t141.5 52q89 0 136.5 -56t47.5 -142v-53z"/>
<glyph glyph-name="Egrave" d="M222 760l-131 144h135l79 -144h-83zM406 0h-346v722h332v-108h-208v-186h160v-108h-160v-212h222v-108z" unicode="È"/>
<glyph glyph-name="Eacute" d="M377 904l-131 -144h-83l79 144h135zM406 0h-346v722h332v-108h-208v-186h160v-108h-160v-212h222v-108z" unicode="É"/>
<glyph glyph-name="Ecircumflex" d="M83 760l96 144h110l96 -144h-92l-59 89l-59 -89h-92zM406 0h-346v722h332v-108h-208v-186h160v-108h-160v-212h222v-108z" unicode="Ê"/>
<glyph glyph-name="Edieresis" d="M101 880h108v-108h-108v108zM367 772h-108v108h108v-108zM406 0h-346v722h332v-108h-208v-186h160v-108h-160v-212h222v-108z" unicode="Ë"/>
<glyph glyph-name="Igrave" horiz-adv-x="278" unicode="Ì" d="M127 760l-131 144h135l79 -144h-83zM201 0h-124v722h124v-722z"/>
<glyph glyph-name="Iacute" horiz-adv-x="278" unicode="Í" d="M282 904l-131 -144h-83l79 144h135zM201 0h-124v722h124v-722z"/>
<glyph glyph-name="Icircumflex" horiz-adv-x="278" unicode="Î" d="M-12 760l96 144h110l96 -144h-92l-59 89l-59 -89h-92zM201 0h-124v722h124v-722z"/>
<glyph glyph-name="Idieresis" horiz-adv-x="278" unicode="Ï" d="M6 880h108v-108h-108v108zM272 772h-108v108h108v-108zM201 0h-124v722h124v-722z"/>
<glyph glyph-name="Eth" horiz-adv-x="500" unicode="Ð" d="M258 428v-108h-74v-218h43q50 0 69.5 22t19.5 79v316q0 57 -19.5 79t-69.5 22h-43v-192h74zM20 320v108h40v294h184q196 0 196 -218v-286q0 -218 -196 -218h-184v320h-40z"/>
<glyph glyph-name="Ntilde" horiz-adv-x="500" unicode="Ñ" d="M357 891h56q-23 -118 -103 -118q-25 0 -65 20q-38 19 -60 19t-31.5 -10.5t-10.5 -33.5h-56q23 118 103 118q23 0 65 -19q44 -20 60 -20q22 0 31.5 10.5t10.5 33.5zM172 0h-112v722h115l151 -413h2v413h112v-722h-108l-158 451h-2v-451z"/>
<glyph glyph-name="Ograve" horiz-adv-x="500" unicode="Ò" d="M238 760l-131 144h135l79 -144h-83zM184 544v-366q0 -42 15 -61t51 -19t51 19t15 61v366q0 42 -15 61t-51 19t-51 -19t-15 -61zM60 175v372q0 81 48.5 133t141.5 52t141.5 -52t48.5 -133v-372q0 -81 -48.5 -133t-141.5 -52t-141.5 52t-48.5 133z"/>
<glyph glyph-name="Oacute" horiz-adv-x="500" unicode="Ó" d="M393 904l-131 -144h-83l79 144h135zM184 544v-366q0 -42 15 -61t51 -19t51 19t15 61v366q0 42 -15 61t-51 19t-51 -19t-15 -61zM60 175v372q0 81 48.5 133t141.5 52t141.5 -52t48.5 -133v-372q0 -81 -48.5 -133t-141.5 -52t-141.5 52t-48.5 133z"/>
<glyph glyph-name="Ocircumflex" horiz-adv-x="500" unicode="Ô" d="M99 760l96 144h110l96 -144h-92l-59 89l-59 -89h-92zM184 544v-366q0 -42 15 -61t51 -19t51 19t15 61v366q0 42 -15 61t-51 19t-51 -19t-15 -61zM60 175v372q0 81 48.5 133t141.5 52t141.5 -52t48.5 -133v-372q0 -81 -48.5 -133t-141.5 -52t-141.5 52t-48.5 133z"/>
<glyph glyph-name="Otilde" horiz-adv-x="500" unicode="Õ" d="M357 891h56q-23 -118 -103 -118q-25 0 -65 20q-38 19 -60 19t-31.5 -10.5t-10.5 -33.5h-56q23 118 103 118q23 0 65 -19q44 -20 60 -20q22 0 31.5 10.5t10.5 33.5zM184 544v-366q0 -42 15 -61t51 -19t51 19t15 61v366q0 42 -15 61t-51 19t-51 -19t-15 -61zM60 175v372 q0 81 48.5 133t141.5 52t141.5 -52t48.5 -133v-372q0 -81 -48.5 -133t-141.5 -52t-141.5 52t-48.5 133z"/>
<glyph glyph-name="Odieresis" horiz-adv-x="500" unicode="Ö" d="M117 880h108v-108h-108v108zM383 772h-108v108h108v-108zM184 544v-366q0 -42 15 -61t51 -19t51 19t15 61v366q0 42 -15 61t-51 19t-51 -19t-15 -61zM60 175v372q0 81 48.5 133t141.5 52t141.5 -52t48.5 -133v-372q0 -81 -48.5 -133t-141.5 -52t-141.5 52t-48.5 133z"/>
<glyph glyph-name="multiply" horiz-adv-x="600" unicode="×" d="M553 437l-183 -184l183 -183l-69 -70l-184 184l-184 -184l-69 70l184 183l-184 184l69 69l184 -184l184 184z"/>
<glyph glyph-name="Oslash" horiz-adv-x="500" unicode="Ø" d="M160 7l-50 -127h-82l69 176q-37 47 -37 119v372q0 81 48.5 133t141.5 52q61 0 103 -24l38 96h81l-59 -152q27 -44 27 -105v-372q0 -81 -48.5 -133t-141.5 -52q-51 0 -90 17zM314 424l-117 -303q12 -23 53 -23q36 0 51 19t15 61v246h-2zM186 257l126 325q-10 42 -62 42 q-36 0 -51 -19t-15 -61v-287h2z"/>
<glyph glyph-name="Ugrave" horiz-adv-x="500" unicode="Ù" d="M238 760l-131 144h135l79 -144h-83zM60 182v540h124v-545q0 -79 66 -79t66 79v545h124v-540q0 -92 -50.5 -142t-139.5 -50t-139.5 50t-50.5 142z"/>
<glyph glyph-name="Uacute" horiz-adv-x="500" unicode="Ú" d="M393 904l-131 -144h-83l79 144h135zM60 182v540h124v-545q0 -79 66 -79t66 79v545h124v-540q0 -92 -50.5 -142t-139.5 -50t-139.5 50t-50.5 142z"/>
<glyph glyph-name="Ucircumflex" horiz-adv-x="500" unicode="Û" d="M99 760l96 144h110l96 -144h-92l-59 89l-59 -89h-92zM60 182v540h124v-545q0 -79 66 -79t66 79v545h124v-540q0 -92 -50.5 -142t-139.5 -50t-139.5 50t-50.5 142z"/>
<glyph glyph-name="Udieresis" horiz-adv-x="500" unicode="Ü" d="M117 880h108v-108h-108v108zM383 772h-108v108h108v-108zM60 182v540h124v-545q0 -79 66 -79t66 79v545h124v-540q0 -92 -50.5 -142t-139.5 -50t-139.5 50t-50.5 142z"/>
<glyph glyph-name="Yacute" d="M365 904l-131 -144h-83l79 144h135zM284 300v-300h-124v300l-150 422h126l87 -275h2l83 275h126z" unicode="Ý"/>
<glyph glyph-name="Thorn" horiz-adv-x="500" unicode="Þ" d="M184 480v-222h48q61 0 83.5 23.5t22.5 87.5t-22.5 87.5t-83.5 23.5h-48zM184 722v-140h54q117 0 170.5 -49.5t53.5 -163.5t-53.5 -163.5t-170.5 -49.5h-54v-156h-124v722h124z"/>
<glyph glyph-name="germandbls" d="M166 0h-112v540q0 93 41 140.5t118 47.5q94 0 132 -52.5t38 -144.5q0 -124 -73 -134v-2q48 -15 70 -60.5t22 -130.5q0 -113 -28.5 -158.5t-87.5 -45.5h-66v95q12 -3 27 -3q22 0 30.5 16t8.5 51v101q0 78 -62 78v92q29 5 38 18.5t9 53.5v70q0 64 -52 64q-28 0 -40.5 -17.5 t-12.5 -56.5v-562z" unicode="ß"/>
<glyph glyph-name="agrave" d="M210 602l-131 144h135l79 -144h-83zM273 132v141q-73 -42 -100 -73.5t-27 -68.5q0 -49 52 -49q40 0 75 50zM154 380h-112q4 81 52 124.5t128 43.5q79 0 121 -36.5t42 -109.5v-345q0 -15 7 -57h-107q-1 8 -3.5 22t-2.5 20q-64 -52 -131 -52q-55 0 -84.5 33.5t-29.5 87.5 q0 86 57 141t182 103v32q0 69 -55 69q-36 0 -49 -19t-15 -57z" unicode="à"/>
<glyph glyph-name="aacute" d="M365 746l-131 -144h-83l79 144h135zM273 132v141q-73 -42 -100 -73.5t-27 -68.5q0 -49 52 -49q40 0 75 50zM154 380h-112q4 81 52 124.5t128 43.5q79 0 121 -36.5t42 -109.5v-345q0 -15 7 -57h-107q-1 8 -3.5 22t-2.5 20q-64 -52 -131 -52q-55 0 -84.5 33.5t-29.5 87.5 q0 86 57 141t182 103v32q0 69 -55 69q-36 0 -49 -19t-15 -57z" unicode="á"/>
<glyph glyph-name="acircumflex" d="M71 602l96 144h110l96 -144h-92l-59 89l-59 -89h-92zM273 132v141q-73 -42 -100 -73.5t-27 -68.5q0 -49 52 -49q40 0 75 50zM154 380h-112q4 81 52 124.5t128 43.5q79 0 121 -36.5t42 -109.5v-345q0 -15 7 -57h-107q-1 8 -3.5 22t-2.5 20q-64 -52 -131 -52 q-55 0 -84.5 33.5t-29.5 87.5q0 86 57 141t182 103v32q0 69 -55 69q-36 0 -49 -19t-15 -57z" unicode="â"/>
<glyph glyph-name="atilde" d="M329 733h56q-23 -118 -103 -118q-25 0 -65 20q-38 19 -60 19t-31.5 -10.5t-10.5 -33.5h-56q23 118 103 118q23 0 65 -19q44 -20 60 -20q22 0 31.5 10.5t10.5 33.5zM273 132v141q-73 -42 -100 -73.5t-27 -68.5q0 -49 52 -49q40 0 75 50zM154 380h-112q4 81 52 124.5 t128 43.5q79 0 121 -36.5t42 -109.5v-345q0 -15 7 -57h-107q-1 8 -3.5 22t-2.5 20q-64 -52 -131 -52q-55 0 -84.5 33.5t-29.5 87.5q0 86 57 141t182 103v32q0 69 -55 69q-36 0 -49 -19t-15 -57z" unicode="ã"/>
<glyph glyph-name="adieresis" d="M89 722h108v-108h-108v108zM355 614h-108v108h108v-108zM273 132v141q-73 -42 -100 -73.5t-27 -68.5q0 -49 52 -49q40 0 75 50zM154 380h-112q4 81 52 124.5t128 43.5q79 0 121 -36.5t42 -109.5v-345q0 -15 7 -57h-107q-1 8 -3.5 22t-2.5 20q-64 -52 -131 -52 q-55 0 -84.5 33.5t-29.5 87.5q0 86 57 141t182 103v32q0 69 -55 69q-36 0 -49 -19t-15 -57z" unicode="ä"/>
<glyph glyph-name="aring" d="M170 704q0 -22 15 -37t37 -15t37 15t15 37t-15 37t-37 15t-37 -15t-15 -37zM120 704q0 42 30 72t72 30t72 -30t30 -72t-30 -72t-72 -30t-72 30t-30 72zM273 132v141q-73 -42 -100 -73.5t-27 -68.5q0 -49 52 -49q40 0 75 50zM154 380h-112q4 81 52 124.5t128 43.5 q79 0 121 -36.5t42 -109.5v-345q0 -15 7 -57h-107q-1 8 -3.5 22t-2.5 20q-64 -52 -131 -52q-55 0 -84.5 33.5t-29.5 87.5q0 86 57 141t182 103v32q0 69 -55 69q-36 0 -49 -19t-15 -57z" unicode="å"/>
<glyph glyph-name="ae" horiz-adv-x="667" unicode="æ" d="M619 248h-235v-78q0 -88 61 -88q62 0 62 88v12h112q-3 -192 -174 -192q-94 0 -136 70q-79 -70 -149 -70q-63 0 -94.5 33t-31.5 88q0 86 56.5 141t181.5 103v32q0 69 -54 69q-36 0 -49 -19t-15 -57h-112q4 80 49.5 124t114.5 44q87 0 129 -50q39 50 119 50q165 0 165 -200 v-100zM384 340h123v28q0 88 -62 88q-61 0 -61 -88v-28zM272 132v141q-73 -42 -99.5 -73.5t-26.5 -68.5q0 -49 52 -49q41 0 74 50z"/>
<glyph glyph-name="ccedilla" d="M396 354h-112v14q0 88 -62 88t-62 -88v-198q0 -88 62 -88t62 88v34h112v-14q0 -184 -148 -199l-35 -51q14 2 21 2q37 -2 64 -21.5t27 -54.5q0 -46 -36.5 -74t-87.5 -28q-50 0 -99 23l17 50q34 -17 65 -17q26 0 42.5 12t16.5 29q0 36 -47 36q-18 0 -36 -7l-22 18l61 83 q-151 12 -151 199v158q0 200 174 200q171 0 174 -194z" unicode="ç"/>
<glyph glyph-name="egrave" d="M210 602l-131 144h135l79 -144h-83zM396 348v-100h-236v-78q0 -88 62 -88t62 88v12h112q-3 -192 -174 -192q-174 0 -174 200v158q0 200 174 200t174 -200zM160 340h124v28q0 88 -62 88t-62 -88v-28z" unicode="è"/>
<glyph glyph-name="eacute" d="M365 746l-131 -144h-83l79 144h135zM396 348v-100h-236v-78q0 -88 62 -88t62 88v12h112q-3 -192 -174 -192q-174 0 -174 200v158q0 200 174 200t174 -200zM160 340h124v28q0 88 -62 88t-62 -88v-28z" unicode="é"/>
<glyph glyph-name="ecircumflex" d="M71 602l96 144h110l96 -144h-92l-59 89l-59 -89h-92zM396 348v-100h-236v-78q0 -88 62 -88t62 88v12h112q-3 -192 -174 -192q-174 0 -174 200v158q0 200 174 200t174 -200zM160 340h124v28q0 88 -62 88t-62 -88v-28z" unicode="ê"/>
<glyph glyph-name="edieresis" d="M89 722h108v-108h-108v108zM355 614h-108v108h108v-108zM396 348v-100h-236v-78q0 -88 62 -88t62 88v12h112q-3 -192 -174 -192q-174 0 -174 200v158q0 200 174 200t174 -200zM160 340h124v28q0 88 -62 88t-62 -88v-28z" unicode="ë"/>
<glyph glyph-name="igrave" horiz-adv-x="222" unicode="ì" d="M99 602l-131 144h135l79 -144h-83zM167 0h-112v538h112v-538z"/>
<glyph glyph-name="iacute" horiz-adv-x="222" unicode="í" d="M254 746l-131 -144h-83l79 144h135zM167 0h-112v538h112v-538z"/>
<glyph glyph-name="icircumflex" horiz-adv-x="222" unicode="î" d="M-40 602l96 144h110l96 -144h-92l-59 89l-59 -89h-92zM167 0h-112v538h112v-538z"/>
<glyph glyph-name="idieresis" horiz-adv-x="222" unicode="ï" d="M-22 722h108v-108h-108v108zM244 614h-108v108h108v-108zM167 0h-112v538h112v-538z"/>
<glyph glyph-name="eth" d="M386 718l30 -70l-95 -37q75 -133 75 -297v-140q0 -184 -174 -184t-174 184v140q0 184 174 184q9 0 37 -2q-3 33 -29 80l-105 -40l-27 72l93 35q-23 34 -47 55l86 24q25 -18 47 -46zM284 163v162q0 81 -62 81t-62 -81v-162q0 -81 62 -81t62 81z" unicode="ð"/>
<glyph glyph-name="ntilde" d="M329 733h56q-23 -118 -103 -118q-25 0 -65 20q-38 19 -60 19t-31.5 -10.5t-10.5 -33.5h-56q23 118 103 118q23 0 65 -19q44 -20 60 -20q22 0 31.5 10.5t10.5 33.5zM166 0h-112v538h106v-54q32 27 43.5 36t36.5 18.5t56 9.5q44 0 69 -30t25 -83v-435h-112v417q0 39 -40 39 q-25 0 -72 -34v-422z" unicode="ñ"/>
<glyph glyph-name="ograve" d="M210 602l-131 144h135l79 -144h-83zM48 190v158q0 200 174 200t174 -200v-158q0 -200 -174 -200t-174 200zM284 170v198q0 88 -62 88t-62 -88v-198q0 -88 62 -88t62 88z" unicode="ò"/>
<glyph glyph-name="oacute" d="M365 746l-131 -144h-83l79 144h135zM48 190v158q0 200 174 200t174 -200v-158q0 -200 -174 -200t-174 200zM284 170v198q0 88 -62 88t-62 -88v-198q0 -88 62 -88t62 88z" unicode="ó"/>
<glyph glyph-name="ocircumflex" d="M71 602l96 144h110l96 -144h-92l-59 89l-59 -89h-92zM48 190v158q0 200 174 200t174 -200v-158q0 -200 -174 -200t-174 200zM284 170v198q0 88 -62 88t-62 -88v-198q0 -88 62 -88t62 88z" unicode="ô"/>
<glyph glyph-name="otilde" d="M329 733h56q-23 -118 -103 -118q-25 0 -65 20q-38 19 -60 19t-31.5 -10.5t-10.5 -33.5h-56q23 118 103 118q23 0 65 -19q44 -20 60 -20q22 0 31.5 10.5t10.5 33.5zM48 190v158q0 200 174 200t174 -200v-158q0 -200 -174 -200t-174 200zM284 170v198q0 88 -62 88t-62 -88 v-198q0 -88 62 -88t62 88z" unicode="õ"/>
<glyph glyph-name="odieresis" d="M89 722h108v-108h-108v108zM355 614h-108v108h108v-108zM48 190v158q0 200 174 200t174 -200v-158q0 -200 -174 -200t-174 200zM284 170v198q0 88 -62 88t-62 -88v-198q0 -88 62 -88t62 88z" unicode="ö"/>
<glyph glyph-name="divide" horiz-adv-x="600" unicode="÷" d="M220 46q0 33 23.5 56.5t56.5 23.5t56.5 -23.5t23.5 -56.5t-23.5 -56.5t-56.5 -23.5t-56.5 23.5t-23.5 56.5zM220 460q0 33 23.5 56.5t56.5 23.5t56.5 -23.5t23.5 -56.5t-23.5 -56.5t-56.5 -23.5t-56.5 23.5t-23.5 56.5zM553 204h-506v98h506v-98z"/>
<glyph glyph-name="oslash" d="M162 173l100 269q-14 14 -40 14q-62 0 -62 -88v-195h2zM153 1l-45 -121h-66l58 153q-52 51 -52 157v158q0 200 174 200q38 0 71 -11l41 109h68l-54 -143q48 -51 48 -155v-158q0 -200 -174 -200q-39 0 -69 11zM282 353l-98 -259q16 -12 38 -12q62 0 62 88v183h-2z" unicode="ø"/>
<glyph glyph-name="ugrave" d="M210 602l-131 144h135l79 -144h-83zM278 538h112v-538h-106v54q-32 -27 -43.5 -36t-36.5 -18.5t-56 -9.5q-44 0 -69 30t-25 83v435h112v-417q0 -39 40 -39q25 0 72 34v422z" unicode="ù"/>
<glyph glyph-name="uacute" d="M365 746l-131 -144h-83l79 144h135zM278 538h112v-538h-106v54q-32 -27 -43.5 -36t-36.5 -18.5t-56 -9.5q-44 0 -69 30t-25 83v435h112v-417q0 -39 40 -39q25 0 72 34v422z" unicode="ú"/>
<glyph glyph-name="ucircumflex" d="M71 602l96 144h110l96 -144h-92l-59 89l-59 -89h-92zM278 538h112v-538h-106v54q-32 -27 -43.5 -36t-36.5 -18.5t-56 -9.5q-44 0 -69 30t-25 83v435h112v-417q0 -39 40 -39q25 0 72 34v422z" unicode="û"/>
<glyph glyph-name="udieresis" d="M89 722h108v-108h-108v108zM355 614h-108v108h108v-108zM278 538h112v-538h-106v54q-32 -27 -43.5 -36t-36.5 -18.5t-56 -9.5q-44 0 -69 30t-25 83v435h112v-417q0 -39 40 -39q25 0 72 34v422z" unicode="ü"/>
<glyph glyph-name="yacute" horiz-adv-x="389" unicode="ý" d="M338 746l-131 -144h-83l79 144h135zM198 194l68 344h113l-141 -578q-18 -72 -53 -100.5t-100 -28.5h-47v92h27q41 0 57.5 21t16.5 66q0 26 -12 71l-117 457h114l72 -344h2z"/>
<glyph glyph-name="thorn" d="M166 428v-318q38 -28 64 -28q54 0 54 87v200q0 87 -54 87q-26 0 -64 -28zM54 722h112v-235h2q24 33 49 47t65 14q53 0 83.5 -39t30.5 -111v-258q0 -72 -30.5 -111t-83.5 -39q-23 0 -43.5 8t-32.5 16.5t-40 31.5v-216h-112v892z" unicode="þ"/>
<glyph glyph-name="OE" horiz-adv-x="722" unicode="Œ" d="M684 0h-414q-103 0 -156.5 56.5t-53.5 163.5v282q0 107 53.5 163.5t156.5 56.5h400v-108h-216v-186h168v-108h-168v-212h230v-108zM330 185v355q0 75 -69 75q-77 0 -77 -95v-315q0 -95 77 -95q69 0 69 75z"/>
<glyph glyph-name="oe" horiz-adv-x="667" unicode="œ" d="M619 248h-229v-78q0 -47 12.5 -67.5t42.5 -20.5q62 0 62 88v12h112q-2 -90 -41.5 -141t-120.5 -51q-86 0 -121 62q-33 -62 -126 -62q-83 0 -122.5 53.5t-39.5 146.5v158q0 93 39.5 146.5t122.5 53.5q97 0 128 -61q36 61 119 61t122.5 -53.5t39.5 -146.5v-100zM390 340 h117v28q0 88 -62 88q-30 0 -42.5 -20.5t-12.5 -67.5v-28zM278 170v198q0 88 -56 88q-62 0 -62 -88v-198q0 -88 62 -88q56 0 56 88z"/>
<glyph glyph-name="Scaron" d="M373 904l-96 -144h-110l-96 144h92l59 -89l59 89h92zM404 557l-118 -13q-3 43 -22 61.5t-44 18.5q-62 0 -62 -71q0 -33 26 -66.5t63 -64t74 -64.5t63 -81.5t26 -101.5q0 -88 -53.5 -136.5t-142.5 -48.5q-83 0 -132.5 57.5t-53.5 142.5l118 17q4 -53 23.5 -81t50.5 -28 q33 0 52.5 17t19.5 49q0 39 -26 74.5t-63 65.5t-74 62.5t-63 80.5t-26 105q0 86 50 133t142 47q74 0 118.5 -48t53.5 -127z" unicode="Š"/>
<glyph glyph-name="scaron" horiz-adv-x="389" unicode="š" d="M346 746l-96 -144h-110l-96 144h92l59 -89l59 89h92zM353 405l-95 -16q-12 67 -64 67q-22 0 -35.5 -11t-13.5 -32q0 -23 21.5 -45.5t52.5 -43.5t62 -45.5t52.5 -62t21.5 -81.5q0 -70 -43 -107.5t-114 -37.5q-144 0 -171 150l98 27q13 -85 74 -85q22 0 36 12.5t14 34.5 q0 25 -21.5 49.5t-52.5 46t-62 45.5t-52.5 58.5t-21.5 75.5q0 63 43 103.5t107 40.5t107.5 -39t56.5 -104z"/>
<glyph glyph-name="Ydieresis" d="M89 880h108v-108h-108v108zM355 772h-108v108h108v-108zM284 300v-300h-124v300l-150 422h126l87 -275h2l83 275h126z" unicode="Ÿ"/>
<glyph glyph-name="circumflex" horiz-adv-x="222" unicode="ˆ" d="M-40 602l96 144h110l96 -144h-92l-59 89l-59 -89h-92z"/>
<glyph glyph-name="tilde" horiz-adv-x="222" unicode="˜" d="M218 733h56q-23 -118 -103 -118q-25 0 -65 20q-38 19 -60 19t-31.5 -10.5t-10.5 -33.5h-56q23 118 103 118q23 0 65 -19q44 -20 60 -20q22 0 31.5 10.5t10.5 33.5z"/>
<glyph glyph-name="uni03BC" d="M278 538h112v-538h-106v54q-29 -25 -39.5 -33t-32 -18.5t-46.5 -12.5v-160h-112v708h112v-417q0 -39 40 -39q25 0 72 34v422z" unicode="μ"/>
<glyph glyph-name="pi" horiz-adv-x="490" unicode="π" d="M469 440h-57v-302q0 -91 11 -138h-99q-15 37 -15 136v304h-112q-4 -99 -18.5 -229.5t-36.5 -210.5h-99q22 89 36.5 217.5t16.5 222.5q-48 0 -77 -9l-12 75q38 31 133 31h336z"/>
<glyph glyph-name="endash" horiz-adv-x="500" unicode="–" d="M500 233h-500v72h500v-72z"/>
<glyph glyph-name="emdash" horiz-adv-x="1000" unicode="—" d="M1000 233h-1000v72h1000v-72z"/>
<glyph glyph-name="quoteleft" horiz-adv-x="222" unicode="‘" d="M52 490v118l69 124h53l-49 -124h45v-118h-118z"/>
<glyph glyph-name="quotesinglbase" horiz-adv-x="222" unicode="‚" d="M170 118v-118l-69 -124h-53l49 124h-45v118h118z"/>
<glyph glyph-name="quotedblleft" d="M255 490v118l69 124h53l-49 -124h45v-118h-118zM70 490v118l69 124h53l-49 -124h45v-118h-118z" unicode="“"/>
<glyph glyph-name="quotedblright" d="M189 722v-118l-69 -124h-53l49 124h-45v118h118zM374 722v-118l-69 -124h-53l49 124h-45v118h118z" unicode="”"/>
<glyph glyph-name="dagger" horiz-adv-x="500" unicode="†" d="M434 574v-124l-167 42l45 -169q-21 -70 -43 -403h-38q-22 333 -43 403l45 169l-167 -42v124l163 -42l-39 200h120l-39 -200z"/>
<glyph glyph-name="daggerdbl" horiz-adv-x="500" unicode="‡" d="M434 574v-124l-167 42l45 -166l-45 -166l167 42v-124l-163 42l39 -200h-120l39 200l-163 -42v124l167 -42l-45 166l45 166l-167 -42v124l163 -42l-39 200h120l-39 -200z"/>
<glyph glyph-name="ellipsis" horiz-adv-x="1000" unicode="…" d="M890 0h-114v118h114v-118zM557 0h-114v118h114v-118zM224 0h-114v118h114v-118z"/>
<glyph glyph-name="perthousand" horiz-adv-x="1000" unicode="‰" d="M96 -10l411 742h70l-411 -742h-70zM766 150q0 -29 20.5 -49.5t49.5 -20.5t49.5 20.5t20.5 49.5t-20.5 49.5t-49.5 20.5t-49.5 -20.5t-20.5 -49.5zM686 150q0 62 44 106t106 44t106 -44t44 -106t-44 -106t-106 -44t-106 44t-44 106zM412 150q0 -29 20.5 -49.5t49.5 -20.5 t49.5 20.5t20.5 49.5t-20.5 49.5t-49.5 20.5t-49.5 -20.5t-20.5 -49.5zM332 150q0 62 44 106t106 44t106 -44t44 -106t-44 -106t-106 -44t-106 44t-44 106zM94 572q0 -29 20.5 -49.5t49.5 -20.5t49.5 20.5t20.5 49.5t-20.5 49.5t-49.5 20.5t-49.5 -20.5t-20.5 -49.5zM14 572 q0 62 44 106t106 44t106 -44t44 -106t-44 -106t-106 -44t-106 44t-44 106z"/>
<glyph glyph-name="guilsinglleft" horiz-adv-x="333" unicode="‹" d="M160 269l114 -154h-96l-115 155l115 153h99z"/>
<glyph glyph-name="guilsinglright" horiz-adv-x="333" unicode="›" d="M59 115l114 154l-117 154h99l115 -153l-115 -155h-96z"/>
<glyph glyph-name="fraction" horiz-adv-x="167" unicode="⁄" d="M-76 -10h-91l410 742h91z"/>
<glyph glyph-name="Euro" horiz-adv-x="500" unicode="€" d="M65 315h37v80h-60l23 84h37v68q0 85 60 135t143 50q93 0 156 -57l-31 -114q-48 63 -120 63q-36 0 -60 -20t-24 -60v-65h181l-23 -84h-158v-80h138l-23 -84h-115v-48q0 -43 24.5 -64.5t61.5 -21.5q70 0 118 44v-116q-59 -35 -132 -35q-81 0 -138.5 50.5t-57.5 134.5v56 h-60z"/>
<glyph glyph-name="trademark" horiz-adv-x="990" unicode="™" d="M370 722v-75h-120v-337h-96v337h-120v75h336zM559 722l103 -271l103 271h135v-412h-92v302h-2l-110 -302h-69l-110 302h-2v-302h-92v412h136z"/>
<glyph glyph-name="partialdiff" horiz-adv-x="473" unicode="∂" d="M212 91h1q44 0 72.5 73t35.5 172q-8 29 -31 52.5t-56 23.5q-41 0 -68.5 -55.5t-27.5 -129.5q0 -62 19.5 -99t54.5 -37zM89 670l-28 87q63 54 146 54q94 0 158.5 -96t64.5 -288q0 -206 -59.5 -318.5t-168.5 -112.5q-78 0 -122 69t-44 167q0 123 53 197t127 74 q41 0 70.5 -20.5t41.5 -44.5h1v32q0 101 -38 174.5t-98 73.5q-56 0 -104 -48z"/>
<glyph glyph-name="product" horiz-adv-x="595" unicode="∏" d="M569 613h-79v-712h-104v712h-179v-712h-103v712h-79v103h544v-103z"/>
<glyph glyph-name="summation" horiz-adv-x="457" unicode="∑" d="M439 -99h-417v76l202 334l-196 326v79h397v-93h-263v-3l177 -288l-198 -322v-4h298v-105z"/>
<glyph glyph-name="minus" horiz-adv-x="600" unicode="−" d="M553 204h-506v98h506v-98z"/>
<glyph glyph-name="radical" horiz-adv-x="499" unicode="√" d="M497 861l-183 -1003h-83l-122 454l-63 -24l-16 65l144 57l81 -315q16 -93 16 -94l2 -1q6 58 12 99l141 762h71z"/>
<glyph glyph-name="infinity" horiz-adv-x="700" unicode="∞" d="M512 387h-1q-13 0 -26.5 -5t-23.5 -11t-23 -18.5t-19 -18.5t-19 -21t-15 -18q45 -55 70.5 -75t59.5 -20q36 0 58 28.5t22 62.5q0 42 -23 69t-60 27zM192 200h1q24 0 48.5 15t38.5 30t38 44q-27 36 -39 50.5t-37 31t-53 16.5q-39 0 -61.5 -27t-22.5 -70q0 -38 25 -64 t62 -26zM657 297v-1q0 -71 -43 -114t-101 -43q-42 0 -80 23t-81 80q-41 -50 -79.5 -76.5t-88.5 -26.5q-58 0 -99.5 43.5t-41.5 109.5q0 68 42 111t106 43q85 0 163 -101q22 25 32 35.5t32.5 30t47 27.5t52.5 8q60 0 99.5 -41t39.5 -108z"/>
<glyph glyph-name="approxequal" horiz-adv-x="463" unicode="≈" d="M390 275l39 -32q-18 -43 -48 -70.5t-67 -27.5q-38 0 -93 36q-47 33 -73 33q-18 0 -33 -11.5t-22.5 -23t-19.5 -33.5l-40 32q19 43 50.5 69.5t70.5 26.5q15 0 30.5 -4.5t22.5 -7.5t23 -12l15 -9q3 -2 11 -7.5t11.5 -7.5t10 -6t10.5 -5.5t9.5 -3.5t10.5 -3t10 -1 q23 0 38 16.5t34 51.5zM390 441l39 -32q-17 -43 -47.5 -70t-67.5 -27q-40 0 -93 35q-45 32 -73 32q-18 0 -33 -11t-23 -22.5t-19 -33.5l-40 32q19 44 50.5 70.5t70.5 26.5q12 0 23.5 -2t22 -7t16.5 -8t16.5 -10t12.5 -8q5 -3 16 -9.5t15.5 -9t13 -6.5t14.5 -5.5t13 -1.5 q23 0 38.5 16t34.5 51z"/>
<glyph glyph-name="notequal" horiz-adv-x="463" unicode="≠" d="M340 496l-33 -79h113v-65h-135l-51 -124h186v-64h-208l-41 -99l-49 18l34 81h-114v64h136l50 124h-186v65h208l41 97z"/>
<glyph glyph-name="lessequal" horiz-adv-x="463" unicode="≤" d="M422 3h-379v67h379v-67zM418 106l-371 209v69l371 210v-78l-311 -165v-2l311 -165v-78z"/>
<glyph glyph-name="greaterequal" horiz-adv-x="463" unicode="≥" d="M422 3h-378v67h378v-67zM49 594l371 -210v-69l-371 -209v78l310 165v2l-310 165v78z"/>
<glyph glyph-name="lozenge" horiz-adv-x="498" unicode="◊" d="M360 355l-91 239q-10 31 -16 69h-4q-4 -31 -16 -69l-94 -234l92 -244q6 -19 15 -64h4q8 43 15 62zM454 358l-165 -401h-86l-158 401l165 401h86z"/>
</font>
</defs>
</svg>
