<?xml version="1.0" standalone="no"?>
<!DOCTYPE svg PUBLIC "-//W3C//DTD SVG 20010904//EN"
 "http://www.w3.org/TR/2001/REC-SVG-20010904/DTD/svg10.dtd">
<svg version="1.0" xmlns="http://www.w3.org/2000/svg"
 width="289.000000pt" height="289.000000pt" viewBox="0 0 289.000000 289.000000"
 preserveAspectRatio="xMidYMid meet">
<metadata>
Created by potrace 1.11, written by Peter Selinger 2001-2013
</metadata>
<g transform="translate(0.000000,289.000000) scale(0.100000,-0.100000)"
fill="#000000" stroke="none">
<path d="M2285 2443 c-41 -8 -111 -37 -138 -56 -18 -12 -39 -18 -58 -15 -32 5
-55 -13 -46 -36 10 -26 63 -29 124 -6 32 12 82 23 110 24 46 1 56 -3 83 -29
77 -78 27 -205 -82 -205 -18 0 -89 13 -158 30 -289 69 -476 110 -500 110 -64
0 -223 -101 -370 -235 -117 -106 -143 -115 -319 -115 -93 0 -146 6 -201 20
-111 29 -259 27 -345 -4 -36 -13 -83 -36 -105 -50 -102 -67 -222 -305 -245
-486 -3 -25 -6 -161 -6 -303 0 -151 -4 -267 -10 -280 -12 -26 13 -139 26 -118
4 7 9 158 10 334 3 332 9 382 42 375 13 -2 24 -26 39 -83 11 -44 26 -93 33
-110 10 -24 10 -55 0 -148 -11 -104 -10 -130 6 -222 17 -98 17 -108 0 -197
-18 -99 -52 -195 -85 -240 l-21 -28 312 0 311 0 -31 35 c-44 50 -59 84 -71
159 -12 75 -1 164 30 254 24 68 99 201 120 212 8 4 96 10 194 11 l179 3 50
-69 c60 -85 105 -180 113 -239 l6 -44 -38 -11 c-22 -6 -61 -11 -88 -11 l-48 0
6 -42 c3 -24 8 -71 12 -106 4 -34 11 -65 16 -68 5 -4 22 6 38 21 16 16 59 36
105 50 43 13 87 32 98 42 50 45 68 137 46 233 -6 25 -12 92 -13 150 -3 96 -6
113 -40 193 -44 103 -42 128 2 33 17 -35 48 -89 70 -118 22 -29 44 -69 50 -88
17 -54 40 -232 48 -365 7 -126 -2 -172 -43 -217 -15 -17 -10 -18 120 -18 85 0
137 4 137 10 0 6 -4 10 -9 10 -4 0 -20 27 -35 60 l-27 60 6 258 c4 141 11 284
17 316 8 48 6 74 -7 132 l-17 72 31 93 c17 52 34 112 39 134 9 42 13 44 72 34
24 -4 25 -2 26 56 1 33 2 65 3 70 1 6 38 16 83 23 92 15 180 42 185 57 2 6
-13 28 -32 49 -32 36 -43 56 -31 56 3 0 30 -22 60 -49 135 -117 329 -167 491
-126 59 15 232 92 224 99 -2 2 -38 -8 -79 -22 -63 -22 -93 -26 -185 -27 -107
0 -112 1 -187 37 -47 22 -78 43 -78 52 0 9 17 24 38 35 97 50 172 138 198 233
16 63 18 195 3 235 -34 90 -150 141 -264 116z m-846 -365 c-58 -73 -126 -205
-134 -263 -12 -82 41 -122 268 -200 59 -21 106 -39 104 -42 -2 -2 -67 12 -143
32 -288 73 -336 132 -249 310 29 59 58 99 112 153 40 39 77 72 83 72 5 0 -13
-28 -41 -62z m-899 -1047 c0 -21 -51 -119 -80 -156 -31 -39 -32 -42 -27 -110
3 -38 1 -101 -5 -140 -6 -38 -12 -99 -14 -135 -1 -36 -3 -71 -3 -79 -2 -25
-39 18 -66 75 -20 42 -25 69 -25 128 0 104 27 173 99 250 34 37 67 84 81 119
21 50 40 73 40 48z"/>
</g>
</svg>
